<?xml version="1.0" standalone="no"?>
<!DOCTYPE svg PUBLIC "-//W3C//DTD SVG 20010904//EN"
 "http://www.w3.org/TR/2001/REC-SVG-20010904/DTD/svg10.dtd">
<svg version="1.0" xmlns="http://www.w3.org/2000/svg"
 width="960.000000pt" height="960.000000pt" viewBox="0 0 960.000000 960.000000"
 preserveAspectRatio="xMidYMid meet">

<g transform="translate(0.000000,960.000000) scale(0.100000,-0.100000)"
fill="#000000" stroke="none">
<path d="M0 4800 l0 -4800 4800 0 4800 0 0 4800 0 4800 -4800 0 -4800 0 0
-4800z m5890 1620 c158 -158 240 -245 240 -254 0 -3 -26 -3 -57 -1 -183 13
-341 27 -365 30 -15 2 -28 -1 -31 -8 -2 -7 -2 -125 1 -263 l5 -251 -29 -6
c-16 -4 -83 -9 -149 -12 -66 -3 -137 -7 -157 -9 l-38 -4 0 259 0 260 -62 -6
c-84 -9 -390 -53 -422 -61 -66 -16 -32 23 358 409 l311 307 119 -117 c66 -65
190 -188 276 -273z m273 -764 c3 -8 6 -198 7 -422 0 -224 5 -438 10 -476 13
-91 42 -149 102 -203 59 -53 123 -75 219 -75 88 0 160 24 216 74 99 87 116
186 111 647 l-3 306 134 7 c74 4 138 3 143 -2 5 -5 8 -190 6 -413 -3 -397 -3
-405 -27 -469 -56 -155 -149 -272 -260 -327 -31 -16 -58 -31 -61 -34 -3 -3
-25 -9 -50 -12 -25 -4 -67 -11 -95 -16 -73 -14 -151 -13 -225 5 -36 8 -75 15
-87 15 -11 -1 -24 6 -27 14 -3 8 -11 15 -18 15 -16 0 -98 40 -116 57 -7 7 -33
27 -57 44 -25 18 -45 35 -45 38 0 4 -12 19 -26 35 -40 42 -80 133 -100 222
-14 65 -18 157 -23 524 -4 245 -5 448 -3 453 2 4 63 7 137 7 105 0 134 -3 138
-14z m-914 -721 c3 -597 1 -675 -12 -675 -11 0 -13 7 -9 23 4 18 3 20 -9 11
-8 -6 -53 -12 -101 -12 l-88 -2 -1 183 c0 229 -9 490 -16 497 -3 3 -3 -154 0
-347 4 -224 3 -353 -3 -353 -6 0 -10 231 -11 623 -1 342 -3 646 -4 675 l-3 52
126 0 127 0 4 -675z m456 305 c2 -168 7 -537 10 -822 l7 -516 -136 -1 -136 -2
-2 528 c-4 749 -4 1065 0 1089 4 20 11 22 70 23 36 0 68 3 71 6 3 3 29 5 59 3
l54 -3 3 -305z m-4220 -260 l0 -505 -2 483 c-2 340 -6 482 -14 482 -8 0 -9
-136 -4 -482 4 -266 9 -485 12 -488 3 -3 136 -5 296 -5 l291 0 4 -107 c3 -91
1 -108 -12 -108 -12 0 -14 11 -9 60 6 68 -3 130 -18 130 -7 0 -9 -33 -7 -95
l4 -95 -397 0 -397 0 -2 163 c-1 89 -5 365 -9 612 -3 248 -5 454 -3 458 2 4
63 6 135 5 l132 -3 0 -505z m6540 254 c132 -52 237 -186 271 -344 64 -301
-110 -598 -366 -626 -67 -7 -82 0 -20 9 78 12 111 20 115 27 6 9 -87 0 -98 -9
-12 -12 -157 8 -180 24 -12 8 -28 15 -36 15 -23 0 -150 84 -151 100 0 10 -3
11 -10 4 -7 -7 -10 -101 -8 -278 2 -218 1 -265 -10 -261 -8 3 -67 5 -133 5
l-119 0 0 653 c0 484 -3 656 -12 665 -17 17 2 21 139 26 79 2 125 0 132 -7 6
-6 11 -33 11 -59 0 -26 3 -48 6 -48 3 0 16 13 29 28 28 33 110 80 174 98 71
21 183 11 266 -22z m-3444 -25 c180 -52 282 -202 295 -429 4 -73 3 -91 -6 -77
-11 17 -28 17 -263 11 -139 -3 -255 -8 -258 -10 -12 -7 -69 8 -63 17 9 16 -25
21 -63 11 -36 -10 -36 -11 -8 -10 45 0 51 -1 36 -11 -7 -5 -28 -6 -47 -4 -29
4 -34 2 -34 -15 0 -66 74 -162 156 -203 42 -21 63 -24 149 -24 96 1 103 3 176
40 l77 38 66 -59 c36 -32 66 -62 66 -66 0 -4 -10 -10 -22 -13 -23 -7 -32 -11
-132 -55 -94 -42 -203 -63 -296 -57 -85 5 -133 18 -223 63 -27 13 -52 22 -57
19 -4 -3 -7 3 -6 13 1 12 -5 16 -21 15 -16 -2 -21 1 -16 13 3 8 2 14 -3 13
-23 -4 -34 5 -72 59 -80 115 -105 271 -64 407 54 175 217 317 392 338 60 8
172 -3 241 -24z m-636 -31 c-8 -40 -46 -140 -51 -135 -3 2 3 20 11 40 8 20 15
42 15 49 0 7 -14 -21 -30 -62 -17 -41 -40 -97 -52 -125 -11 -27 -27 -63 -33
-80 -15 -36 -128 -340 -181 -485 -20 -58 -42 -110 -48 -117 -7 -7 -52 -13
-110 -15 l-99 -4 -14 36 c-18 42 -47 108 -78 175 -58 127 -81 178 -131 300
-60 141 -113 260 -156 344 -32 62 -35 80 -10 79 9 0 64 3 122 7 84 6 108 5
116 -6 10 -12 43 -96 136 -349 11 -30 24 -64 29 -75 5 -11 25 -60 43 -110 19
-49 38 -89 42 -88 4 1 27 59 51 130 24 70 48 139 53 153 4 14 27 77 50 140 23
63 48 136 56 162 l14 46 78 7 c42 3 86 7 97 9 11 2 35 4 53 5 33 1 33 0 27
-31z m-1252 -13 c199 -52 315 -211 317 -435 l0 -55 -350 0 c-193 -1 -350 3
-350 7 0 4 -4 8 -8 8 -15 0 -12 -97 4 -116 13 -17 13 -16 4 9 -15 41 -12 56 8
54 12 0 29 -21 46 -54 43 -80 110 -124 212 -137 59 -7 182 28 247 70 l38 25
62 -48 c34 -26 63 -48 65 -49 7 -4 -102 -101 -146 -130 -56 -37 -110 -51 -226
-60 -62 -5 -86 -4 -86 5 0 7 26 11 79 11 77 0 176 16 196 32 47 38 77 67 62
62 -11 -4 -29 -17 -41 -28 -34 -35 -170 -60 -281 -52 -94 6 -142 19 -228 62
l-52 26 25 -25 c14 -13 32 -27 40 -30 12 -4 12 -6 -1 -6 -9 -1 -34 12 -55 28
-130 96 -182 219 -171 406 6 102 27 167 80 247 58 87 142 149 236 174 64 18
206 17 274 -1z m-100 -512 c-7 -2 -19 -2 -25 0 -7 3 -2 5 12 5 14 0 19 -2 13
-5z m1046 -322 c-6 -18 -13 -30 -15 -28 -2 2 1 18 7 36 6 18 13 30 15 28 2 -2
-1 -18 -7 -36z m4035 -20 c-2 -3 -12 3 -22 13 -16 17 -16 18 5 5 12 -7 20 -15
17 -18z m-5299 -11 c3 -5 -1 -10 -10 -10 -9 0 -13 5 -10 10 3 6 8 10 10 10 2
0 7 -4 10 -10z m1236 -37 c-12 -20 -14 -14 -5 12 4 9 9 14 11 11 3 -2 0 -13
-6 -23z m-1092 1 c8 -7 -54 -2 -79 6 -17 6 -9 7 25 3 28 -3 52 -7 54 -9z
m1954 -113 c38 -24 54 -50 66 -100 21 -93 -31 -154 -140 -167 -72 -8 -119 7
-159 52 -58 67 -28 180 60 221 41 19 141 16 173 -6z m1718 -6 c53 -28 86 -113
66 -173 -34 -104 -206 -112 -274 -12 -26 38 -29 76 -10 123 32 76 134 105 218
62z m-3243 -75 c234 -38 424 -201 509 -435 25 -71 26 -332 0 -424 -29 -106
-126 -280 -164 -295 -21 -9 -15 8 17 44 46 52 46 53 79 115 17 32 31 65 30 74
0 9 -7 -1 -14 -21 -16 -43 -60 -111 -118 -181 -21 -26 -32 -44 -23 -41 28 11
17 -10 -21 -40 -20 -17 -45 -29 -55 -29 -10 1 -17 -3 -15 -9 3 -16 -67 -54
-154 -83 -233 -78 -584 -12 -731 137 -65 67 -66 68 -112 150 -119 213 -120
521 -4 728 68 119 201 223 353 275 120 41 295 55 423 35z m4116 -231 c82 -15
139 -42 192 -91 96 -89 103 -127 104 -565 l1 -348 -121 -1 c-79 0 -123 3 -125
10 -2 6 -6 139 -8 296 -6 331 -13 375 -66 429 -47 48 -97 65 -159 56 -58 -9
-88 -24 -129 -67 -65 -68 -68 -81 -71 -415 l-3 -303 -130 0 -129 0 -1 403 c0
221 -3 441 -5 490 l-4 87 129 0 c72 0 132 -4 135 -9 4 -5 7 -21 8 -35 3 -30
10 -33 28 -11 58 69 209 101 354 74z m-1754 -81 c41 -19 89 -50 105 -67 l30
-33 5 59 5 58 130 0 130 0 3 -430 c2 -286 -1 -453 -9 -498 -30 -182 -167 -327
-350 -372 -88 -22 -251 -16 -354 12 -65 18 -195 71 -195 80 0 4 93 150 131
206 4 5 44 -9 90 -32 133 -65 223 -71 304 -21 80 49 115 117 115 223 l0 70
-22 -20 c-60 -54 -188 -93 -308 -93 -47 0 -96 3 -109 7 -23 6 -23 7 -5 14 13
5 7 7 -21 7 -86 -2 -210 91 -259 195 -37 78 -49 156 -42 257 12 171 94 307
226 375 72 37 113 45 220 42 96 -3 112 -7 180 -39z m904 26 l26 -6 0 -479 0
-479 -135 0 -135 0 0 479 c0 449 1 480 18 483 33 7 200 9 226 2z m-2079 -16
c2 -2 5 -57 6 -122 l1 -119 -63 2 c-35 1 -79 -3 -98 -9 -40 -11 -55 -5 -20 9
20 8 21 10 5 10 -28 1 -102 -45 -125 -78 -31 -43 -25 -50 9 -11 16 19 29 30
30 24 0 -6 -7 -18 -17 -25 -9 -8 -22 -27 -29 -44 -7 -16 -14 -23 -15 -15 0 8
-5 4 -9 -10 -12 -38 -12 -188 1 -196 7 -4 8 -27 4 -65 -4 -33 -3 -59 2 -59 4
0 10 -53 11 -118 l3 -119 -77 -6 c-42 -4 -101 -7 -131 -7 l-53 0 -2 433 c-3
506 -3 496 6 505 4 4 59 8 122 10 l114 4 0 -63 0 -64 30 37 c58 71 151 111
239 104 29 -3 55 -6 56 -8z m385 -479 c0 -419 -2 -490 -14 -486 -8 3 -71 7
-140 8 l-126 2 0 326 c0 179 -3 392 -6 474 -4 82 -3 148 2 148 5 1 68 5 139 8
72 4 133 8 138 9 4 1 7 -219 7 -489z m-590 216 c0 -2 -10 -10 -22 -16 -21 -11
-22 -11 -9 4 13 16 31 23 31 12z m3157 -532 c-1 -76 -3 -14 -3 137 0 151 2
213 3 138 2 -76 2 -200 0 -275z m-58 -76 c-14 -13 -69 -34 -69 -28 0 9 39 29
59 30 8 1 12 -1 10 -2z m-659 -127 c0 -5 -4 -10 -10 -10 -5 0 -10 5 -10 10 0
6 5 10 10 10 6 0 10 -4 10 -10z m-20 -40 c0 -5 -5 -10 -11 -10 -5 0 -7 5 -4
10 3 6 8 10 11 10 2 0 4 -4 4 -10z m-60 -130 c0 -49 -97 -221 -175 -310 -154
-176 -455 -430 -493 -415 -7 2 -10 0 -7 -5 6 -9 -42 -34 -240 -126 -181 -84
-618 -124 -875 -80 -103 17 -280 63 -330 85 l-25 12 25 -6 c14 -4 43 -10 65
-15 22 -5 52 -13 66 -19 15 -5 37 -7 50 -3 25 7 24 7 -98 28 -24 3 -43 11 -43
15 0 5 -13 9 -30 9 -16 0 -30 5 -30 10 0 6 -7 10 -15 10 -20 0 -128 50 -137
64 -6 8 -8 7 -8 -1 0 -7 -6 -13 -12 -13 -15 0 -196 110 -253 153 -22 17 -42
32 -44 34 -3 2 1 9 8 16 9 9 14 9 19 0 5 -7 13 -9 21 -4 16 10 5 18 -39 31
-18 5 -30 5 -30 -1 0 -5 5 -9 10 -9 6 0 10 -4 10 -10 0 -20 -20 -9 -67 38 -73
73 -103 109 -103 121 0 6 -4 11 -8 11 -26 0 -177 283 -188 352 l-6 36 33 -7
c19 -5 57 -17 84 -28 28 -12 64 -26 80 -32 17 -7 46 -32 65 -57 182 -234 555
-448 906 -519 284 -58 615 -36 861 55 136 50 359 185 446 268 38 37 51 40 20
5 -16 -17 -134 -117 -174 -146 -8 -7 -31 -21 -50 -31 -18 -11 -36 -23 -39 -26
-18 -26 -310 -140 -357 -140 -7 0 -13 -5 -13 -10 0 -12 48 -3 67 12 7 5 16 7
21 4 6 -3 32 3 58 13 27 11 75 30 107 42 31 12 57 26 57 30 0 4 13 10 29 14
16 3 35 13 42 21 6 8 15 14 20 14 21 0 171 114 245 187 91 89 173 206 197 284
5 15 111 40 222 53 17 1 36 4 43 5 6 0 12 -8 12 -19z m157 -322 c-3 -8 -6 -5
-6 6 -1 11 2 17 5 13 3 -3 4 -12 1 -19z m-772 -424 c-26 -20 -55 -36 -55 -30
0 5 63 46 70 46 3 -1 -4 -8 -15 -16z m-81 -49 c-10 -8 -23 -15 -28 -15 -6 0
-1 7 10 15 10 8 23 15 28 15 6 0 1 -7 -10 -15z m-1514 -15 c0 -5 -7 -7 -15 -4
-8 4 -15 8 -15 10 0 2 7 4 15 4 8 0 15 -4 15 -10z m1465 -10 c-3 -5 -12 -10
-18 -10 -7 0 -6 4 3 10 19 12 23 12 15 0z"/>
<path d="M7083 5370 c0 -47 2 -66 4 -42 2 23 2 61 0 85 -2 23 -4 4 -4 -43z"/>
<path d="M6132 5300 c0 -14 2 -19 5 -12 2 6 2 18 0 25 -3 6 -5 1 -5 -13z"/>
<path d="M7082 4855 c0 -16 2 -22 5 -12 2 9 2 23 0 30 -3 6 -5 -1 -5 -18z"/>
<path d="M7081 4734 c0 -11 3 -14 6 -6 3 7 2 16 -1 19 -3 4 -6 -2 -5 -13z"/>
<path d="M6568 4443 c7 -3 16 -2 19 1 4 3 -2 6 -13 5 -11 0 -14 -3 -6 -6z"/>
<path d="M5224 5065 c0 -148 2 -211 3 -138 2 72 2 194 0 270 -1 76 -3 17 -3
-132z"/>
<path d="M5143 5220 c0 -36 2 -50 4 -32 2 17 2 47 0 65 -2 17 -4 3 -4 -33z"/>
<path d="M5224 4595 c0 -71 1 -99 3 -62 2 37 2 96 0 130 -2 34 -3 4 -3 -68z"/>
<path d="M5222 4375 c0 -16 2 -22 5 -12 2 9 2 23 0 30 -3 6 -5 -1 -5 -18z"/>
<path d="M1230 5285 c0 -241 12 -635 19 -630 4 2 5 172 4 379 -2 257 1 376 8
376 7 0 10 -45 8 -132 -2 -73 1 -323 5 -555 8 -408 8 -423 -10 -424 -14 -1
-13 -3 6 -9 14 -4 19 -8 13 -9 -7 -1 -13 -5 -13 -10 0 -5 39 -8 88 -6 48 1
141 3 206 4 66 0 117 3 115 5 -2 3 -44 6 -93 8 -48 1 -90 6 -92 10 -3 5 -21 8
-40 8 -30 0 -33 2 -23 18 12 19 53 42 78 43 29 1 -34 21 -66 21 -18 0 -33 3
-34 7 -1 6 -7 481 -10 798 -1 160 -3 181 -17 175 -12 -4 -14 -1 -9 12 4 10 7
25 8 34 1 10 4 7 9 -8 l8 -25 1 26 c2 42 -26 44 -34 3 -5 -27 -9 -33 -19 -25
-7 6 -17 7 -21 3 -5 -4 -5 -2 -1 5 10 19 -29 52 -53 46 -22 -6 -30 12 -8 20 6
3 2 4 -10 4 -23 -1 -23 -2 -23 -172z m63 44 c-2 -83 -13 -88 -13 -6 0 37 3 67
8 67 4 0 6 -27 5 -61z m77 -49 c0 -13 -5 -18 -15 -14 -11 5 -12 9 -2 20 16 18
17 17 17 -6z m-10 -55 c0 -9 -6 -12 -15 -9 -8 4 -15 10 -15 15 0 5 7 9 15 9 8
0 15 -7 15 -15z m20 -332 c0 -22 -2 -25 -10 -13 -13 20 -13 40 0 40 6 0 10
-12 10 -27z m-9 -68 c7 19 8 19 8 -2 1 -13 -4 -23 -10 -23 -8 0 -9 -16 -5 -52
14 -101 17 -286 6 -293 -5 -3 -10 1 -10 9 0 9 -5 16 -11 16 -5 0 -7 5 -4 10 8
13 9 316 1 329 -3 4 -2 11 2 16 4 4 9 -1 11 -12 3 -17 4 -17 12 2z m-63 -245
c0 -39 -2 -49 -8 -35 -5 11 -8 49 -8 85 0 50 2 58 8 35 4 -16 8 -55 8 -85z
m12 -104 c0 -3 -4 -8 -10 -11 -5 -3 -10 -1 -10 4 0 6 5 11 10 11 6 0 10 -2 10
-4z m53 -161 c-7 -21 -13 -19 -13 6 0 11 4 18 10 14 5 -3 7 -12 3 -20z"/>
<path d="M1288 5453 c7 -3 16 -2 19 1 4 3 -2 6 -13 5 -11 0 -14 -3 -6 -6z"/>
<path d="M1241 4573 c0 -39 4 -75 9 -78 12 -7 12 28 0 100 l-7 50 -2 -72z"/>
<path d="M1527 4418 c-5 -3 -17 -4 -26 0 -9 3 -13 2 -9 -3 7 -7 179 -8 186 0
7 6 -140 10 -151 3z"/>
<path d="M1783 4423 c15 -2 39 -2 55 0 15 2 2 4 -28 4 -30 0 -43 -2 -27 -4z"/>
<path d="M1933 4423 c15 -2 37 -2 50 0 12 2 0 4 -28 4 -27 0 -38 -2 -22 -4z"/>
<path d="M1698 4413 c6 -2 18 -2 25 0 6 3 1 5 -13 5 -14 0 -19 -2 -12 -5z"/>
<path d="M1943 4403 c9 -2 23 -2 30 0 6 3 -1 5 -18 5 -16 0 -22 -2 -12 -5z"/>
<path d="M1596 4362 c-2 -4 12 -6 32 -4 56 5 62 10 15 11 -23 1 -44 -3 -47 -7z"/>
<path d="M1463 4313 c9 -2 25 -2 35 0 9 3 1 5 -18 5 -19 0 -27 -2 -17 -5z"/>
<path d="M1698 4273 c6 -2 18 -2 25 0 6 3 1 5 -13 5 -14 0 -19 -2 -12 -5z"/>
<path d="M1778 4273 c12 -2 32 -2 45 0 12 2 2 4 -23 4 -25 0 -35 -2 -22 -4z"/>
<path d="M1988 4273 c7 -3 16 -2 19 1 4 3 -2 6 -13 5 -11 0 -14 -3 -6 -6z"/>
<path d="M7688 5073 c7 -3 16 -2 19 1 4 3 -2 6 -13 5 -11 0 -14 -3 -6 -6z"/>
<path d="M7747 5061 c-124 -26 -224 -197 -203 -348 8 -58 50 -135 97 -178 86
-78 237 -73 316 10 26 27 63 98 64 122 0 10 3 13 5 6 3 -6 1 -29 -5 -49 -6
-21 -6 -33 -2 -28 5 5 16 39 25 75 42 171 -7 311 -131 376 -30 16 -120 23
-166 14z m290 -348 c-3 -10 -5 -4 -5 12 0 17 2 24 5 18 2 -7 2 -21 0 -30z"/>
<path d="M8060 5000 c0 -5 5 -10 11 -10 5 0 7 5 4 10 -3 6 -8 10 -11 10 -2 0
-4 -4 -4 -10z"/>
<path d="M7304 4420 c0 -168 2 -236 3 -152 2 83 2 221 0 305 -1 83 -3 15 -3
-153z"/>
<path d="M8177 4453 c-4 -3 -7 -11 -7 -17 0 -6 5 -5 12 2 6 6 9 14 7 17 -3 3
-9 2 -12 -2z"/>
<path d="M8124 4385 c-16 -14 -24 -25 -18 -25 6 0 21 11 34 25 30 32 21 32
-16 0z"/>
<path d="M8026 4331 c-18 -7 -18 -8 -2 -14 25 -10 38 -9 31 2 -3 5 3 12 12 14
15 4 15 5 -2 5 -11 0 -29 -3 -39 -7z"/>
<path d="M7310 4038 c-3 -26 -1 -43 3 -39 5 5 7 26 5 47 l-3 39 -5 -47z"/>
<path d="M4325 5057 c-75 -36 -139 -115 -146 -182 l-4 -30 230 4 c127 1 234 6
238 10 4 4 3 20 -3 35 -13 34 -13 49 0 41 16 -10 12 19 -6 41 -8 10 -13 13 -9
7 15 -30 -8 -31 -28 -1 -60 89 -176 121 -272 75z"/>
<path d="M4225 5030 c-3 -5 -1 -10 4 -10 6 0 11 5 11 10 0 6 -2 10 -4 10 -3 0
-8 -4 -11 -10z"/>
<path d="M4586 5027 c3 -10 9 -15 12 -12 3 3 0 11 -7 18 -10 9 -11 8 -5 -6z"/>
<path d="M4120 4949 c0 -11 5 -17 10 -14 6 3 10 13 10 21 0 8 -4 14 -10 14 -5
0 -10 -9 -10 -21z"/>
<path d="M4465 4820 c11 -4 52 -4 90 0 l70 7 -90 0 c-50 0 -81 -3 -70 -7z"/>
<path d="M4268 4813 c28 -2 76 -2 105 0 28 2 5 3 -53 3 -58 0 -81 -1 -52 -3z"/>
<path d="M4166 4754 c-4 -9 -4 -19 -1 -22 6 -6 35 18 35 29 0 16 -28 10 -34
-7z"/>
<path d="M4248 4759 c-8 -6 3 -9 30 -9 23 0 42 3 42 8 0 10 -56 11 -72 1z"/>
<path d="M4308 4723 c7 -3 16 -2 19 1 4 3 -2 6 -13 5 -11 0 -14 -3 -6 -6z"/>
<path d="M4700 4490 c-8 -5 -12 -12 -9 -15 4 -3 12 1 19 10 14 17 11 19 -10 5z"/>
<path d="M4598 4423 c7 -3 16 -2 19 1 4 3 -2 6 -13 5 -11 0 -14 -3 -6 -6z"/>
<path d="M3010 5124 c0 -5 11 -32 25 -60 14 -27 23 -38 19 -24 -8 31 -43 99
-44 84z"/>
<path d="M3086 4962 c-2 -4 -1 -14 5 -22 7 -12 9 -10 9 8 0 23 -5 28 -14 14z"/>
<path d="M3621 4914 c0 -11 3 -14 6 -6 3 7 2 16 -1 19 -3 4 -6 -2 -5 -13z"/>
<path d="M3112 4895 c0 -16 2 -22 5 -12 2 9 2 23 0 30 -3 6 -5 -1 -5 -18z"/>
<path d="M3596 4854 c-4 -9 -4 -19 -1 -22 2 -3 7 3 11 12 4 9 4 19 1 22 -2 3
-7 -3 -11 -12z"/>
<path d="M3151 4824 c0 -11 3 -14 6 -6 3 7 2 16 -1 19 -3 4 -6 -2 -5 -13z"/>
<path d="M3581 4804 c0 -11 3 -14 6 -6 3 7 2 16 -1 19 -3 4 -6 -2 -5 -13z"/>
<path d="M3556 4745 c-9 -26 -7 -32 5 -12 6 10 9 21 6 23 -2 3 -7 -2 -11 -11z"/>
<path d="M3541 4694 c0 -11 3 -14 6 -6 3 7 2 16 -1 19 -3 4 -6 -2 -5 -13z"/>
<path d="M3506 4589 c-9 -29 -16 -57 -15 -63 0 -6 9 16 20 49 10 32 16 61 14
63 -2 2 -11 -20 -19 -49z"/>
<path d="M3271 4524 c0 -11 3 -14 6 -6 3 7 2 16 -1 19 -3 4 -6 -2 -5 -13z"/>
<path d="M3340 4351 c0 -14 39 -57 40 -43 0 6 -4 12 -10 12 -5 0 -9 3 -9 8 3
18 -2 32 -11 32 -5 0 -10 -4 -10 -9z"/>
<path d="M2526 5031 c-4 -5 -23 -12 -45 -16 -24 -4 -51 -19 -72 -40 -52 -51
-59 -62 -58 -87 0 -22 1 -22 10 -3 6 15 8 9 6 -25 l-2 -45 115 1 c224 2 291 6
297 19 8 22 -34 91 -83 134 -41 36 -63 45 -124 54 -8 2 -20 6 -27 10 -6 4 -14
3 -17 -2z"/>
<path d="M2650 5026 c0 -2 7 -6 15 -10 8 -3 15 -1 15 4 0 6 -7 10 -15 10 -8 0
-15 -2 -15 -4z"/>
<path d="M2710 4991 c0 -6 4 -13 10 -16 6 -3 7 1 4 9 -7 18 -14 21 -14 7z"/>
<path d="M2745 4950 c3 -5 8 -10 11 -10 2 0 4 5 4 10 0 6 -5 10 -11 10 -5 0
-7 -4 -4 -10z"/>
<path d="M2330 4935 c0 -8 -4 -15 -10 -15 -14 0 -12 -13 5 -36 10 -12 13 -14
10 -3 -3 8 -1 28 4 42 7 17 7 27 1 27 -6 0 -10 -7 -10 -15z"/>
<path d="M2150 4890 c-6 -11 -9 -33 -7 -48 4 -26 4 -26 6 4 0 16 6 35 13 42 6
6 9 14 6 18 -4 3 -12 -4 -18 -16z"/>
<path d="M2303 4844 c-10 -21 -9 -24 7 -24 14 0 18 6 15 21 -6 30 -9 31 -22 3z"/>
<path d="M2212 4825 c0 -16 2 -22 5 -12 2 9 2 23 0 30 -3 6 -5 -1 -5 -18z"/>
<path d="M2122 4770 c0 -19 2 -27 5 -17 2 9 2 25 0 35 -3 9 -5 1 -5 -18z"/>
<path d="M2121 4654 c0 -11 3 -14 6 -6 3 7 2 16 -1 19 -3 4 -6 -2 -5 -13z"/>
<path d="M2132 4590 c-1 -19 5 -44 13 -54 13 -17 15 -18 15 -3 0 9 -4 17 -9
17 -6 0 -12 17 -14 38 l-4 37 -1 -35z"/>
<path d="M2326 4588 c11 -35 60 -103 88 -121 33 -22 58 -22 26 0 -34 23 -57
50 -87 101 -27 46 -38 54 -27 20z"/>
<path d="M2332 4520 c7 -10 14 -18 15 -16 6 6 -9 36 -18 36 -5 0 -4 -9 3 -20z"/>
<path d="M2830 4480 c-9 -6 -10 -10 -3 -10 6 0 15 5 18 10 8 12 4 12 -15 0z"/>
<path d="M2180 4472 c0 -5 7 -17 15 -28 13 -17 14 -17 15 -1 0 9 -5 17 -11 17
-5 0 -7 5 -4 10 3 6 1 10 -4 10 -6 0 -11 -4 -11 -8z"/>
<path d="M2220 4413 c0 -12 28 -38 34 -32 2 2 -5 13 -15 23 -11 11 -19 15 -19
9z"/>
<path d="M2890 4400 c0 -5 5 -10 10 -10 6 0 10 5 10 10 0 6 -4 10 -10 10 -5 0
-10 -4 -10 -10z"/>
<path d="M2650 3842 c-160 -53 -260 -181 -280 -357 -8 -67 1 -155 19 -200 64
-155 125 -229 228 -278 208 -97 425 -26 519 170 32 67 37 86 41 176 6 109 -10
194 -48 269 -11 21 -17 44 -13 50 4 6 3 8 -4 4 -6 -3 -20 7 -32 24 -12 17 -42
46 -67 65 -25 19 -42 35 -36 35 5 0 14 -5 21 -12 8 -8 12 -8 12 -1 0 5 -28 23
-62 38 -82 37 -215 45 -298 17z"/>
<path d="M3219 2873 c-13 -16 -12 -17 4 -4 16 13 21 21 13 21 -2 0 -10 -8 -17
-17z"/>
<path d="M3110 2799 c0 -5 5 -7 10 -4 6 3 10 8 10 11 0 2 -4 4 -10 4 -5 0 -10
-5 -10 -11z"/>
<path d="M5091 3597 c-42 -13 -121 -90 -145 -141 -18 -38 -19 -103 -2 -177 23
-104 89 -166 200 -189 65 -13 109 -8 176 21 96 42 133 105 134 224 0 86 -17
133 -68 186 -14 15 -23 29 -20 32 3 3 0 8 -7 13 -8 4 -10 3 -5 -4 10 -16 -4
-14 -34 4 l-25 15 25 -7 c36 -9 13 11 -29 25 -42 14 -154 13 -200 -2z m192
-14 c-7 -2 -19 -2 -25 0 -7 3 -2 5 12 5 14 0 19 -2 13 -5z m-215 -32 c-53 -33
-92 -81 -112 -137 -8 -21 -15 -32 -15 -24 -1 26 35 94 65 124 31 31 83 66 98
66 6 0 -11 -13 -36 -29z"/>
<path d="M4940 2946 c0 -2 7 -7 16 -10 8 -3 12 -2 9 4 -6 10 -25 14 -25 6z"/>
<path d="M4261 2914 c0 -11 3 -14 6 -6 3 7 2 16 -1 19 -3 4 -6 -2 -5 -13z"/>
<path d="M3325 2579 c-4 -5 1 -12 9 -15 9 -3 14 -10 11 -14 -3 -4 1 -22 9 -40
7 -18 16 -28 20 -22 3 6 2 13 -4 17 -12 7 -14 45 -2 45 5 0 31 -7 58 -15 58
-18 54 -17 54 -6 0 16 -147 64 -155 50z"/>
<path d="M3375 2520 c3 -5 14 -10 23 -10 15 0 15 2 2 10 -20 13 -33 13 -25 0z"/>
<path d="M3490 2515 c0 -16 270 -285 286 -285 3 0 20 -10 37 -21 l32 -22 -27
27 c-15 14 -30 26 -33 26 -4 0 -29 21 -57 48 -68 63 -63 58 -146 151 -65 71
-92 94 -92 76z"/>
<path d="M6060 2475 c-7 -9 -11 -18 -8 -20 3 -3 11 1 18 10 7 9 11 18 8 20 -3
3 -11 -1 -18 -10z"/>
<path d="M3380 2470 c0 -6 9 -27 20 -47 19 -37 20 -37 20 -10 0 15 -4 27 -10
27 -5 0 -10 9 -10 20 0 11 -4 20 -10 20 -5 0 -10 -5 -10 -10z"/>
<path d="M6001 2454 c0 -11 3 -14 6 -6 3 7 2 16 -1 19 -3 4 -6 -2 -5 -13z"/>
<path d="M3520 2359 c0 -5 5 -7 10 -4 6 3 10 8 10 11 0 2 -4 4 -10 4 -5 0 -10
-5 -10 -11z"/>
<path d="M3512 2240 c2 -14 7 -23 11 -20 5 3 15 -6 22 -20 11 -19 14 -21 15
-7 0 10 8 17 20 17 13 0 18 5 13 16 -4 10 -15 14 -35 12 -17 -2 -33 3 -39 12
-8 12 -9 10 -7 -10z"/>
<path d="M5928 2203 c7 -3 16 -2 19 1 4 3 -2 6 -13 5 -11 0 -14 -3 -6 -6z"/>
<path d="M3574 2164 c3 -9 6 -18 6 -20 0 -3 5 -2 10 1 6 3 10 1 10 -6 0 -7 3
-10 6 -7 7 8 -18 48 -29 48 -5 0 -6 -7 -3 -16z"/>
<path d="M3645 2160 c6 -10 56 -34 93 -45 12 -3 22 -12 22 -20 0 -17 83 -55
117 -54 21 1 23 3 8 6 -17 5 -15 7 10 18 l30 12 -30 8 c-30 7 -115 44 -167 71
-30 16 -92 19 -83 4z"/>
<path d="M3880 2166 c0 -3 14 -12 30 -21 17 -9 30 -13 30 -11 0 3 -13 12 -30
21 -16 9 -30 13 -30 11z"/>
<path d="M3755 2030 c3 -5 10 -10 16 -10 5 0 9 5 9 10 0 6 -7 10 -16 10 -8 0
-12 -4 -9 -10z"/>
<path d="M5736 1975 c-16 -14 -25 -25 -19 -25 5 0 20 11 33 25 30 32 23 32
-14 0z"/>
<path d="M5120 1931 c0 -5 9 -7 20 -4 11 3 20 7 20 9 0 2 -9 4 -20 4 -11 0
-20 -4 -20 -9z"/>
<path d="M5031 1919 c-61 -12 -65 -20 -5 -13 47 6 99 24 64 23 -8 -1 -35 -5
-59 -10z"/>
<path d="M4728 1893 c7 -3 16 -2 19 1 4 3 -2 6 -13 5 -11 0 -14 -3 -6 -6z"/>
<path d="M4828 1893 c6 -2 18 -2 25 0 6 3 1 5 -13 5 -14 0 -19 -2 -12 -5z"/>
<path d="M4160 1840 c0 -6 7 -10 15 -10 8 0 15 2 15 4 0 2 -7 6 -15 10 -8 3
-15 1 -15 -4z"/>
<path d="M5353 1827 c-35 -12 -63 -25 -63 -29 0 -14 47 -8 60 7 7 8 30 18 51
21 21 4 36 10 33 15 -6 11 -6 11 -81 -14z"/>
<path d="M4330 1800 c-24 -8 -23 -8 8 -9 20 -1 31 3 27 9 -3 6 -7 10 -8 9 -1
-1 -13 -5 -27 -9z"/>
<path d="M4408 1763 c7 -3 16 -2 19 1 4 3 -2 6 -13 5 -11 0 -14 -3 -6 -6z"/>
<path d="M4485 1759 c8 -11 55 -12 55 -1 0 5 -14 9 -30 10 -17 0 -28 -4 -25
-9z"/>
<path d="M4600 1760 c0 -5 -9 -10 -19 -10 -11 0 -22 -4 -26 -9 -3 -6 8 -6 27
0 18 6 52 10 76 10 25 0 40 4 37 9 -8 13 -95 13 -95 0z"/>
<path d="M5178 1743 c7 -3 16 -2 19 1 4 3 -2 6 -13 5 -11 0 -14 -3 -6 -6z"/>
<path d="M4830 1720 c0 -5 7 -10 15 -10 8 0 15 5 15 10 0 6 -7 10 -15 10 -8 0
-15 -4 -15 -10z"/>
<path d="M4363 1703 c9 -2 23 -2 30 0 6 3 -1 5 -18 5 -16 0 -22 -2 -12 -5z"/>
<path d="M4470 1688 c0 -4 14 -8 30 -8 17 0 30 2 30 4 0 2 -13 6 -30 8 -16 3
-30 1 -30 -4z"/>
<path d="M4550 1680 c20 -13 63 -13 55 0 -3 6 -21 10 -38 10 -24 0 -28 -3 -17
-10z"/>
<path d="M4865 1680 c-3 -5 3 -10 14 -10 11 0 23 5 26 10 3 6 -3 10 -14 10
-11 0 -23 -4 -26 -10z"/>
</g>
</svg>
